<?xml version="1.0" encoding="utf-8"?>
<!-- Generator: Adobe Illustrator 23.0.1, SVG Export Plug-In . SVG Version: 6.00 Build 0)  -->
<svg version="1.1" id="Layer_1" xmlns="http://www.w3.org/2000/svg" xmlns:xlink="http://www.w3.org/1999/xlink" x="0px" y="0px"
	 viewBox="0 0 122.9 83.8" style="enable-background:new 0 0 122.9 83.8;" xml:space="preserve">
<style type="text/css">
	.st0{fill:#9EFF00;}
</style>
<g>
	<path class="st0" d="M95.7,10.8c10.5,7.1,19.6,17.4,26.5,29.9l0.7,1.2l-0.7,1.2c-6.9,12.5-16,22.8-26.5,29.9
		c-10.3,6.9-21.9,10.8-34.3,10.8s-24-3.9-34.3-10.8C16.6,65.9,7.6,55.6,0.7,43.1L0,41.9l0.7-1.2c6.9-12.5,15.9-22.8,26.5-29.9
		C37.4,3.9,49.1,0,61.4,0S85.4,3.9,95.7,10.8L95.7,10.8z M60.8,22.2l4.1,0.4c-1.5,2.2-2.3,4.8-2.3,7.7c0,7.5,5.9,13.5,13.1,13.5
		c2.3,0,4.5-0.6,6.4-1.7c0,0.5,0.1,0.9,0.1,1.4c0,11.8-9.5,21.3-21.3,21.3s-21.3-9.5-21.3-21.3C39.5,31.7,49,22.2,60.8,22.2
		L60.8,22.2L60.8,22.2z M109,41.9c-5.5-9.7-12.6-17.6-20.8-23.1c-8.1-5.4-17.2-8.5-26.8-8.5c-9.6,0-18.7,3.1-26.8,8.5
		c-8.2,5.5-15.3,13.5-20.8,23.1c5.5,9.7,12.6,17.6,20.8,23.1c8,5.4,17.2,8.5,26.8,8.5c9.6,0,18.7-3.1,26.8-8.5
		C96.4,59.5,103.5,51.5,109,41.9L109,41.9z"/>
</g>
</svg>
