<?xml version="1.0" encoding="utf-8"?>
<!-- Generator: Adobe Illustrator 23.0.1, SVG Export Plug-In . SVG Version: 6.00 Build 0)  -->
<svg version="1.1" id="Layer_1" xmlns="http://www.w3.org/2000/svg" xmlns:xlink="http://www.w3.org/1999/xlink" x="0px" y="0px"
	 viewBox="0 0 122.9 96.3" style="enable-background:new 0 0 122.9 96.3;" xml:space="preserve">
<style type="text/css">
	.st0{fill:#9EFF00;}
</style>
<g>
	<path class="st0" d="M104.5,23.3c6.8,6.3,12.8,14,17.7,22.9l0.7,1.2l-0.7,1.2c-6.9,12.5-16,22.8-26.5,29.9
		C86.9,84.4,77,88.1,66.6,89l6.7-11.7c5.3-1.4,10.2-3.8,14.9-6.9C96.4,65,103.5,57,109,47.4c-3-5.2-6.4-9.9-10.3-14L104.5,23.3
		L104.5,23.3z M88,0l17.8,10.3l-49.7,86L38.4,86l0.7-1.2c-4.1-1.7-8.1-3.8-11.9-6.4C16.6,71.3,7.6,61.1,0.7,48.6L0,47.4l0.7-1.2
		c6.9-12.5,16-22.8,26.5-29.8C37.4,9.4,49.1,5.5,61.4,5.5c7.4,0,14.4,1.4,21.1,3.9L88,0L88,0L88,0z M44.4,75.6l5-8.7
		c-5.9-3.8-9.9-10.4-9.9-18c0-11.8,9.5-21.3,21.3-21.3c3.6,0,6.9,0.9,9.9,2.4l6.6-11.4c-5-1.9-10.3-2.9-15.8-2.9
		c-9.6,0-18.7,3.1-26.8,8.5c-8.2,5.5-15.3,13.4-20.8,23.1C19.4,57,26.5,65,34.7,70.5C37.8,72.6,41,74.3,44.4,75.6L44.4,75.6z
		 M63.9,41.7l6.7-11.7c-1.8-1-3.8-1.6-5.8-2c-1.5,2.2-2.3,4.8-2.3,7.7C62.6,37.9,63.1,39.9,63.9,41.7L63.9,41.7L63.9,41.7z"/>
</g>
</svg>
